<?xml version="1.0" standalone="no"?>
<!DOCTYPE svg PUBLIC "-//W3C//DTD SVG 20010904//EN"
 "http://www.w3.org/TR/2001/REC-SVG-20010904/DTD/svg10.dtd">
<svg version="1.0" xmlns="http://www.w3.org/2000/svg"
 width="380" height="380" viewBox="0 0 1500.000000 1500.000000"
 preserveAspectRatio="xMidYMid meet">

<g transform="translate(0.000000,1500.000000) scale(0.100000,-0.100000)"
fill="#fff" stroke="none">
<path d="M7122 12430 c-757 -47 -1502 -263 -2120 -614 -35 -20 -65 -36 -67
-36 -1 0 0 52 3 115 9 202 -30 303 -138 357 -80 41 -266 81 -375 82 -85 1 -94
-1 -154 -34 -138 -75 -293 -255 -396 -459 -85 -170 -159 -427 -186 -645 -11
-96 -8 -366 6 -411 5 -16 -14 -45 -79 -125 -94 -113 -242 -318 -325 -449 -236
-371 -443 -836 -551 -1238 -12 -46 -26 -83 -31 -83 -5 0 -9 -16 -9 -35 l0 -35
741 0 c669 0 741 -2 735 -16 -3 -8 -15 -61 -26 -117 -28 -137 -27 -134 -59
-140 -21 -4 -32 -15 -40 -38 -15 -44 -14 -81 3 -105 12 -16 12 -58 1 -72 -2
-2 -29 15 -60 37 -95 67 -166 55 -253 -44 l-38 -43 -17 47 c-14 40 -25 52 -64
73 -62 34 -113 43 -157 28 -50 -16 -154 -130 -196 -215 -31 -63 -35 -80 -38
-172 -2 -57 -1 -114 2 -128 8 -32 80 -111 117 -131 42 -21 147 -18 183 5 l29
19 25 -36 c13 -20 29 -39 34 -41 5 -1 21 -14 35 -27 30 -28 97 -33 141 -10 34
18 85 71 105 111 9 17 16 25 17 18 1 -37 119 -112 177 -113 51 0 60 8 99 86
20 41 41 77 45 80 5 3 9 -13 9 -35 0 -58 18 -71 101 -71 91 0 109 16 109 98 0
80 -14 96 -88 102 l-61 5 65 78 c57 70 64 83 64 122 0 62 -20 78 -87 73 -50
-4 -53 -3 -47 16 19 64 33 83 60 89 23 4 35 17 57 61 32 67 34 99 7 124 -19
18 -19 21 -5 62 18 52 20 130 2 153 -6 10 -35 28 -62 42 l-50 24 538 1 537 0
0 35 0 35 -1029 0 -1030 0 38 113 c138 408 344 799 598 1137 l64 85 97 0 c94
0 100 2 171 40 94 50 227 175 326 306 l73 97 7 -36 c11 -60 35 -100 74 -124
20 -12 46 -34 59 -49 36 -44 164 -64 221 -35 42 22 47 33 86 162 49 163 42
149 63 131 23 -21 156 -57 212 -57 25 0 58 8 74 18 29 17 29 17 60 -14 32 -32
62 -44 169 -66 103 -22 174 23 192 119 10 57 66 183 81 183 7 0 21 -11 31 -24
38 -47 190 -101 259 -91 47 7 102 44 138 93 l24 33 14 -28 c16 -34 96 -77 176
-94 31 -7 58 -13 60 -15 2 -1 -13 -68 -33 -149 -20 -81 -36 -171 -36 -201 0
-61 7 -56 -114 -74 -155 -24 -374 -79 -436 -111 -102 -51 -189 -113 -263 -185
-156 -155 -186 -254 -163 -536 7 -79 6 -98 -5 -98 -21 0 -37 55 -49 165 -6 55
-13 102 -15 104 -9 10 -37 -13 -66 -54 -88 -123 -91 -278 -8 -408 16 -26 30
-50 30 -52 0 -13 -31 -1 -77 30 -29 19 -55 35 -58 35 -20 0 40 -181 76 -227
37 -46 94 -83 130 -83 l27 0 -1 -152 c0 -134 4 -180 36 -363 44 -247 53 -353
38 -455 -37 -270 -37 -251 -13 -372 32 -161 31 -164 -31 -131 -47 24 -125 43
-180 43 -78 0 -140 -33 -193 -103 -74 -97 -84 -129 -84 -277 0 -116 3 -137 30
-221 38 -115 71 -177 125 -232 87 -88 193 -122 305 -98 29 6 55 9 57 7 3 -3
-7 -53 -23 -113 -36 -144 -36 -234 -1 -324 32 -81 88 -188 122 -233 35 -46 32
-62 -12 -76 -21 -7 -53 -22 -72 -33 l-34 -20 7 -81 c16 -204 36 -306 77 -393
132 -287 322 -400 654 -391 121 4 135 6 197 35 81 38 141 78 188 127 40 41 50
43 75 16 50 -56 185 -106 322 -119 54 -6 115 -15 137 -21 51 -15 86 -51 86
-89 0 -25 -5 -30 -30 -36 -21 -5 -43 -1 -69 12 -44 22 -45 14 -5 -46 40 -59
68 -71 169 -71 79 0 98 4 150 29 33 15 74 43 90 60 17 17 46 38 65 47 78 34
129 112 130 196 0 45 1 47 35 57 19 5 49 19 66 32 36 25 49 16 49 -37 0 -38
-14 -58 -65 -88 l-40 -25 30 -11 c42 -16 100 -5 181 34 70 34 117 75 150 134
10 17 27 35 39 38 38 11 96 57 129 103 58 78 223 238 258 250 47 16 78 48 227
235 73 91 141 168 151 171 30 9 95 77 117 120 30 57 53 142 53 189 0 23 -10
82 -21 131 -12 50 -27 119 -35 155 -8 36 -17 73 -20 84 -6 17 -2 18 32 12 22
-4 67 -10 102 -13 55 -4 70 -1 119 24 154 77 246 251 246 463 0 155 -45 274
-135 355 -62 55 -105 75 -165 75 -68 0 -146 -47 -193 -117 -21 -31 -43 -52
-54 -53 -17 0 -18 9 -14 163 5 160 5 165 62 372 76 283 110 475 109 630 -1 83
-6 133 -17 164 -9 24 -16 67 -16 96 0 48 5 59 48 116 l47 63 3 118 c3 91 0
130 -13 170 -23 71 -68 140 -122 187 -37 33 -43 44 -42 73 4 58 -18 101 -89
170 -119 116 -208 173 -289 184 -46 6 -51 9 -63 43 -39 111 -127 209 -231 259
-44 20 -64 37 -77 62 -29 58 -237 212 -338 249 -92 35 -306 25 -419 -19 -33
-13 -536 -72 -544 -64 -3 3 1 15 9 27 58 89 74 155 46 192 -12 17 -14 16 -25
-17 -11 -33 -59 -80 -108 -107 -30 -15 -30 -12 2 148 29 142 63 272 75 285 4
4 15 -3 24 -16 9 -14 37 -40 63 -59 99 -71 194 -36 380 138 l51 48 5 -37 c3
-20 14 -56 25 -80 11 -24 26 -58 32 -75 7 -18 26 -41 44 -52 40 -24 190 -63
238 -63 49 1 73 14 140 79 52 52 78 61 78 28 0 -28 57 -79 124 -111 122 -59
180 -44 251 64 24 37 61 85 81 107 38 42 36 37 -31 -73 -31 -51 -39 -73 -39
-113 0 -64 30 -94 133 -139 85 -37 139 -37 190 -1 16 12 87 106 157 209 70
103 176 256 236 340 116 162 124 167 178 136 l27 -17 -112 -156 c-61 -86 -148
-207 -193 -269 -75 -104 -82 -118 -82 -161 0 -57 15 -73 135 -146 68 -42 87
-49 130 -49 74 0 106 22 161 111 57 94 154 236 243 357 64 89 90 103 53 29
-11 -21 -29 -68 -40 -105 -25 -79 -18 -115 27 -162 16 -17 35 -45 43 -63 14
-36 124 -128 178 -151 45 -18 109 -10 168 23 47 27 62 25 62 -6 0 -23 65 -96
119 -134 54 -37 105 -47 153 -31 l38 14 68 -87 c226 -286 356 -491 502 -795
92 -190 136 -299 200 -496 l48 -145 -999 -3 -999 -2 0 -35 0 -35 1335 0 c734
0 1335 3 1335 6 0 3 -9 26 -20 52 -10 26 -27 76 -35 112 -110 437 -336 943
-602 1347 -70 107 -238 334 -313 424 l-30 36 46 23 c86 45 121 120 90 193 -18
45 -51 66 -114 74 -45 5 -51 8 -56 33 -6 35 -164 203 -206 220 -17 7 -50 10
-75 8 l-45 -6 -70 78 c-39 43 -86 85 -106 95 -44 21 -105 21 -162 1 l-44 -16
-46 36 c-26 20 -47 40 -47 44 0 17 170 215 301 351 104 107 132 143 136 170
12 78 -29 130 -164 211 -96 57 -151 72 -208 55 -50 -14 -40 -1 -299 -361 -74
-102 -137 -186 -140 -186 -3 0 -21 9 -39 20 l-33 20 33 45 c150 205 168 232
179 280 14 61 0 121 -34 153 -31 30 -137 76 -244 107 -88 25 -92 25 -133 9
-36 -14 -46 -26 -65 -69 -17 -38 -134 -228 -181 -293 -1 -2 -76 25 -166 61
-447 178 -894 286 -1374 332 -194 19 -592 26 -772 15z m327 -170 c4 0 22 11
41 25 19 14 35 25 36 25 2 0 -3 -19 -11 -41 -8 -23 -15 -45 -15 -50 0 -5 21
-9 47 -9 l48 0 -38 -25 c-20 -14 -37 -27 -37 -29 0 -3 19 -18 42 -35 l42 -31
-52 0 c-29 0 -52 -2 -52 -4 0 -2 7 -22 15 -45 15 -45 15 -45 -38 -8 -16 10
-30 17 -33 15 -2 -3 -10 -25 -18 -49 l-13 -44 -13 48 c-7 26 -15 47 -19 47 -3
0 -23 -11 -44 -25 -20 -14 -37 -24 -37 -22 0 3 6 23 14 45 l15 41 -52 3 -51 3
37 25 c33 22 49 50 30 50 -5 0 -21 11 -38 24 l-30 24 38 -5 c62 -8 69 -1 52
48 -20 55 -20 55 19 25 45 -34 53 -33 61 7 12 52 18 54 33 9 7 -23 17 -42 21
-42z m2382 11 c102 -34 165 -65 172 -85 7 -16 -4 -61 -23 -97 -7 -13 -105
-145 -217 -292 -113 -148 -203 -270 -201 -272 6 -6 298 -59 301 -54 24 27 330
443 421 572 135 191 134 191 235 137 93 -51 151 -97 151 -123 0 -15 -32 -54
-101 -122 -55 -55 -167 -179 -247 -275 -204 -243 -216 -259 -200 -264 138 -44
148 -48 148 -66 0 -28 -22 -30 -122 -13 l-92 16 -29 -34 c-95 -112 -354 -473
-480 -669 -55 -86 -74 -88 -180 -25 -42 26 -77 52 -77 58 1 7 111 165 246 352
l245 340 -38 7 c-21 4 -97 7 -170 7 l-132 1 -90 -125 c-50 -68 -163 -230 -251
-359 -115 -168 -167 -236 -184 -240 -15 -4 -47 5 -90 24 -51 23 -66 35 -66 51
0 16 249 441 339 578 12 19 -1 14 -59 -26 -209 -141 -400 -313 -461 -416 -20
-34 -43 -60 -56 -63 -30 -8 -147 55 -151 81 -2 11 -17 34 -33 50 -15 17 -32
48 -37 70 l-8 40 -107 -104 -108 -104 -42 6 c-23 3 -73 16 -110 27 -64 20 -68
23 -53 39 14 16 13 20 -19 49 -18 18 -35 42 -37 55 -7 46 13 124 52 206 81
169 295 512 330 531 18 10 35 5 108 -30 139 -66 145 -78 84 -168 -48 -71 -195
-305 -247 -392 -21 -36 -47 -80 -58 -99 -19 -32 -19 -33 -1 -23 46 27 429 405
492 487 93 121 124 149 154 141 34 -9 188 -125 188 -142 0 -7 -45 -63 -100
-122 -102 -110 -231 -266 -250 -301 -5 -11 38 14 97 55 116 81 290 188 364
224 39 19 51 33 88 101 47 88 51 91 105 99 37 5 42 10 110 117 39 62 132 207
206 323 74 116 143 229 152 251 21 47 28 48 139 10z m-5346 -31 c104 -15 235
-49 277 -73 102 -56 114 -262 33 -542 -37 -128 -51 -152 -126 -226 -72 -72
-163 -128 -246 -153 -63 -18 -72 -10 -47 42 33 71 106 288 135 407 32 128 48
308 30 335 -8 12 -17 7 -48 -29 -133 -153 -256 -374 -333 -596 -56 -162 -70
-266 -70 -520 0 -363 40 -454 167 -380 25 15 105 85 178 156 131 127 160 145
184 115 16 -20 1 -53 -65 -144 -80 -109 -217 -241 -289 -279 -87 -46 -141 -51
-207 -21 -29 14 -67 37 -85 52 -47 39 -101 127 -133 215 -121 331 -74 802 119
1196 100 204 233 360 364 425 67 34 65 33 162 20z m2998 -410 c51 -1 58 -3 42
-12 -11 -6 -30 -20 -43 -31 -21 -19 -24 -20 -55 -5 -17 8 -57 21 -87 29 l-55
14 55 6 c30 3 61 4 68 2 8 -2 41 -3 75 -3z m-444 -47 c-10 -21 -25 -54 -33
-75 l-14 -36 -114 56 c-62 32 -110 58 -106 60 11 5 210 30 250 31 l36 1 -19
-37z m871 22 c69 -9 139 -18 156 -21 l32 -6 -50 -79 c-48 -75 -68 -90 -68 -49
0 31 -46 76 -128 124 -42 25 -75 46 -72 46 3 0 62 -7 130 -15z m-1275 -45 c-3
-5 -11 -10 -16 -10 -6 0 -7 5 -4 10 3 6 11 10 16 10 6 0 7 -4 4 -10z m-182
-26 c29 -15 82 -44 119 -65 36 -22 71 -39 77 -39 5 0 18 13 27 30 10 16 27 31
38 33 12 1 65 -19 119 -45 72 -36 97 -53 97 -67 0 -11 -31 -68 -69 -128 -37
-59 -90 -148 -116 -198 l-47 -90 53 60 c29 33 106 114 170 180 l118 120 41
110 c22 60 45 114 49 118 10 10 129 -13 211 -40 63 -21 83 -48 70 -94 -8 -27
-1 -23 63 37 143 131 172 133 347 26 l65 -40 -2 -56 c-3 -75 -50 -209 -110
-308 -77 -130 -264 -315 -355 -352 -43 -18 -63 -9 -115 47 -38 42 -49 64 -82
185 -6 20 -13 11 -53 -65 -73 -138 -125 -337 -172 -653 -17 -110 -26 -146 -37
-148 -8 -1 -63 16 -122 39 -91 35 -108 45 -114 67 -13 53 61 345 182 720 26
79 45 145 43 147 -14 14 -208 -313 -208 -350 0 -22 -41 -45 -69 -39 -61 13
-131 47 -131 63 0 9 -14 25 -31 36 -17 11 -38 35 -48 54 l-18 33 -50 -68 c-58
-79 -89 -109 -118 -117 -30 -8 -171 45 -168 63 2 10 -15 22 -45 34 -66 27 -72
33 -72 79 0 27 -3 38 -10 31 -23 -23 -123 -235 -146 -310 -17 -58 -31 -85 -43
-89 -28 -9 -151 25 -174 48 -19 19 -19 28 -13 156 4 75 13 175 20 223 6 48 9
85 5 82 -12 -7 -97 -216 -133 -325 -24 -74 -39 -106 -54 -112 -30 -14 -169 19
-182 43 -7 12 -1 85 19 236 16 121 27 221 25 223 -5 6 -59 -115 -119 -269 -45
-116 -69 -187 -149 -445 -7 -22 -16 -39 -19 -37 -4 1 -29 2 -57 2 -49 0 -50 1
-50 29 0 26 -4 30 -40 36 -65 11 -74 34 -67 168 9 164 76 634 105 742 l9 30
110 -1 c112 -2 182 -16 184 -37 0 -7 2 -20 4 -31 2 -10 -16 -66 -40 -125 -44
-108 -80 -219 -73 -226 2 -2 17 26 33 63 114 269 286 552 335 552 41 0 131
-42 142 -66 12 -25 13 -19 -40 -266 -17 -76 -29 -138 -27 -138 2 0 33 42 69
93 90 126 149 187 181 187 14 0 48 -11 75 -25 62 -32 71 -57 40 -122 -22 -48
-74 -256 -68 -275 2 -6 26 23 52 63 27 41 75 108 106 149 31 41 73 107 93 145
47 89 120 186 190 253 66 61 91 65 170 26z m-2048 -80 c-14 -49 -44 -140 -66
-202 -35 -96 -47 -116 -80 -143 -21 -17 -39 -29 -39 -26 0 12 46 143 77 217
37 92 122 254 129 247 2 -2 -7 -44 -21 -93z m4167 17 c4 -3 -4 -18 -16 -32
l-23 -26 -10 38 c-10 38 -10 39 16 33 14 -4 29 -9 33 -13z m-2523 -104 l-40
-64 -34 34 c-19 19 -35 37 -35 41 -1 6 114 50 137 51 7 1 -6 -27 -28 -62z
m2979 -66 c-7 -9 -14 -18 -15 -20 -2 -2 -3 8 -3 22 0 20 4 25 15 21 13 -5 13
-9 3 -23z m1617 -203 c39 -40 87 -92 106 -116 l34 -42 37 26 c24 17 43 24 57
19 27 -8 161 -153 161 -174 0 -9 -51 -55 -115 -104 -63 -49 -145 -118 -182
-154 -61 -58 -64 -63 -28 -42 22 12 76 42 120 67 159 90 318 155 354 145 15
-4 21 -13 21 -33 0 -24 -13 -34 -117 -95 -173 -99 -296 -188 -399 -287 -56
-54 -99 -88 -112 -88 -30 0 -127 81 -127 107 -1 11 -9 33 -20 49 -10 16 -23
45 -30 66 l-11 38 -68 -46 c-102 -69 -129 -78 -169 -59 -52 25 -131 97 -116
106 10 6 0 19 -34 49 -29 26 -47 50 -47 63 0 31 60 163 98 220 86 125 221 239
371 314 119 60 129 59 216 -29z m-5930 -445 l-6 -35 -25 23 -24 23 27 22 c32
25 38 18 28 -33z m-1136 -683 c4 0 22 11 41 25 19 14 35 25 36 25 2 0 -3 -19
-11 -41 -21 -59 -20 -61 30 -57 25 2 45 0 45 -4 0 -5 -3 -8 -7 -8 -5 0 -21
-10 -37 -23 l-29 -23 44 -32 43 -32 -52 0 c-29 0 -52 -2 -52 -4 0 -2 7 -22 15
-45 15 -45 15 -45 -38 -8 -16 10 -30 17 -33 15 -2 -3 -10 -25 -18 -49 l-13
-44 -14 48 c-7 26 -16 47 -19 47 -3 0 -21 -11 -40 -25 -18 -14 -35 -23 -37
-21 -2 1 3 21 11 44 l15 41 -51 3 -52 3 43 30 43 29 -23 16 c-13 8 -32 22 -42
31 -19 14 -18 15 17 11 61 -7 68 0 51 49 -20 55 -20 55 19 25 19 -14 39 -26
44 -26 5 0 15 19 22 43 l13 42 14 -42 c8 -24 18 -43 22 -43z m7730 -10 c4 0
22 11 41 25 19 14 35 25 36 25 2 0 -3 -19 -11 -41 -8 -23 -15 -45 -15 -50 0
-5 21 -9 47 -9 l48 0 -38 -25 c-20 -14 -37 -27 -37 -29 0 -3 19 -18 42 -35
l42 -31 -52 0 c-29 0 -52 -2 -52 -4 0 -2 7 -22 15 -45 15 -45 15 -45 -38 -8
-16 10 -30 18 -31 16 -2 -2 -10 -24 -18 -49 l-15 -45 -13 45 c-8 25 -15 47
-17 49 -1 2 -21 -8 -43 -23 -22 -14 -40 -25 -40 -22 0 2 6 22 14 44 l15 41
-51 3 -52 3 42 29 42 29 -36 26 -37 26 34 3 c59 5 60 7 44 53 -20 55 -20 55
19 25 45 -34 53 -33 61 7 12 52 18 54 33 9 7 -23 17 -42 21 -42z m-2917 -1229
c-24 -16 -39 -31 -34 -35 5 -3 54 1 108 9 115 17 282 19 336 5 84 -24 150 -98
181 -204 22 -72 36 -991 15 -984 -9 3 -12 21 -10 62 2 31 -2 80 -9 109 -57
242 -265 383 -594 403 -117 8 -204 -7 -290 -50 -38 -19 -71 -33 -74 -31 -2 2
6 20 18 40 11 20 21 38 21 41 0 11 -32 1 -96 -31 -140 -70 -211 -145 -236
-251 l-12 -52 -51 -6 c-27 -3 -125 -3 -217 1 l-166 6 -17 43 c-38 101 -249
241 -395 263 -55 8 -203 16 -235 12 -5 -1 1 -10 14 -20 24 -18 23 -18 -110
-23 -126 -5 -138 -7 -203 -38 -84 -40 -209 -155 -249 -229 -24 -43 -107 -251
-107 -267 0 -3 5 -2 11 2 8 4 8 0 0 -15 -14 -25 -31 -28 -31 -3 0 9 10 99 22
200 16 128 26 182 35 182 29 0 35 40 26 198 -15 283 -8 581 13 589 13 5 252
-33 299 -48 17 -5 84 -13 150 -19 66 -5 135 -13 153 -16 31 -6 32 -5 32 30 l0
35 68 -34 c98 -49 195 -72 238 -56 28 10 44 10 88 -3 30 -9 81 -16 113 -15 32
1 81 -2 110 -6 44 -6 57 -4 87 15 20 12 36 26 36 31 0 16 22 10 56 -16 39 -30
123 -53 175 -49 45 4 179 47 314 102 174 70 282 112 290 112 4 0 21 7 38 15
28 12 47 16 117 23 8 1 -5 -11 -28 -27z m-4055 -183 c60 -30 64 -53 28 -157
-14 -41 -25 -78 -25 -83 0 -4 14 -8 30 -8 17 0 30 -2 30 -5 0 -2 -10 -25 -22
-50 -22 -46 -32 -52 -58 -35 -12 7 -27 -26 -86 -183 -39 -106 -75 -201 -79
-212 -5 -11 36 26 89 83 71 74 104 102 122 102 38 0 30 -35 -19 -94 -80 -93
-165 -215 -198 -281 -17 -36 -38 -65 -46 -65 -37 0 -143 73 -143 99 0 4 16 54
35 111 19 57 33 105 32 107 -2 1 -38 -18 -81 -43 l-78 -45 7 -49 c9 -62 -16
-121 -73 -172 -48 -43 -90 -50 -110 -18 -7 11 -18 20 -25 20 -15 0 -57 60 -57
82 0 9 33 47 74 85 68 64 73 71 62 91 l-12 23 -20 -22 c-10 -12 -65 -64 -122
-115 -102 -93 -104 -94 -154 -94 -48 0 -54 3 -106 55 l-54 54 4 98 c5 123 34
187 129 287 59 62 70 70 102 69 20 -1 54 -11 77 -24 35 -20 43 -31 60 -86 14
-46 17 -70 10 -88 -11 -30 -73 -76 -162 -121 l-68 -34 0 -55 c0 -30 4 -55 9
-55 11 0 113 74 209 152 49 41 72 66 72 81 0 71 112 207 169 207 33 0 125 -69
129 -96 2 -17 -7 -23 -56 -37 -71 -20 -119 -57 -130 -100 -9 -33 -5 -67 7 -67
4 0 52 25 106 55 55 30 103 55 107 55 6 0 26 58 84 243 4 12 0 17 -15 17 -26
0 -33 13 -25 45 5 19 12 25 34 25 23 0 30 6 39 33 10 30 51 227 51 242 0 13
68 -3 117 -27z m68 -878 l0 -45 -52 -3 -53 -3 0 44 c0 24 3 47 7 51 4 4 28 6
53 4 l45 -3 0 -45z m2648 15 c64 -19 138 -55 166 -79 56 -50 101 -100 101
-113 0 -7 3 -13 8 -13 20 0 37 -70 37 -155 0 -119 -4 -137 -59 -228 -25 -43
-46 -81 -46 -83 0 -9 -148 -154 -157 -154 -5 0 -15 -9 -23 -20 -8 -11 -20 -20
-26 -20 -7 0 -14 -4 -16 -9 -5 -14 -156 -91 -178 -91 -11 0 -20 -4 -20 -9 0
-5 -12 -11 -27 -14 -16 -3 -55 -13 -88 -21 -96 -25 -279 -21 -391 8 -50 14
-109 33 -130 44 -39 20 -154 127 -154 144 0 18 -2 24 -14 38 -23 28 -48 144
-53 246 -12 227 38 333 202 430 28 16 68 35 90 42 22 7 49 17 60 22 19 7 63
17 180 39 80 15 485 12 538 -4z m1464 2 c45 -7 85 -15 89 -20 4 -4 18 -7 30
-7 13 0 26 -4 29 -10 3 -5 15 -10 26 -10 18 0 103 -38 171 -75 73 -41 144
-137 163 -220 22 -97 11 -270 -23 -380 -20 -64 -52 -122 -89 -162 -43 -47
-128 -103 -155 -103 -10 0 -26 -4 -36 -9 -39 -21 -118 -31 -253 -31 -137 0
-259 15 -259 32 0 4 -9 8 -19 8 -25 0 -161 61 -161 72 0 4 -6 8 -14 8 -8 0
-16 3 -18 8 -1 4 -23 18 -48 31 -39 21 -160 132 -160 147 0 3 -9 13 -19 22
-19 17 -60 84 -104 172 -31 63 -32 227 -2 280 46 78 75 118 105 143 44 37 173
97 212 98 18 1 47 5 63 9 48 12 383 10 472 -3z m-857 -52 c18 -11 11 -44 -25
-118 -19 -39 -35 -76 -35 -82 0 -6 -36 -10 -89 -10 l-88 0 -13 30 c-7 16 -25
48 -40 71 -31 47 -44 90 -30 99 33 20 290 28 320 10z m-93 -307 c6 -7 13 -38
16 -69 7 -69 49 -164 123 -274 65 -96 67 -124 12 -145 -18 -8 -65 -28 -105
-47 -98 -46 -126 -44 -238 17 -119 64 -131 91 -74 170 75 103 115 191 130 280
10 64 27 80 85 80 23 0 46 -6 51 -12z m1946 -72 c18 -7 50 -33 73 -57 78 -86
110 -187 102 -334 -11 -189 -100 -318 -257 -370 -60 -19 -107 -12 -153 24 -24
19 -25 25 -32 183 -4 90 -11 205 -16 257 l-10 93 30 41 c16 23 30 36 30 31 0
-6 -5 -15 -12 -22 -7 -7 -12 -37 -12 -68 0 -57 5 -66 58 -99 15 -9 15 -15 1
-59 -18 -60 -19 -162 -2 -196 16 -31 62 -42 53 -12 -4 11 -7 51 -7 89 -1 53 4
81 21 113 13 26 19 51 16 66 -6 23 -4 24 43 24 68 0 78 -6 100 -56 11 -24 25
-44 30 -44 18 0 12 51 -10 97 -37 76 -116 111 -180 79 -43 -22 -49 -20 -49 10
0 62 63 104 155 104 40 0 55 4 55 14 0 18 -60 46 -99 46 -33 0 -102 -30 -133
-58 -34 -29 -17 3 25 50 60 67 112 83 180 54z m-3869 -60 c77 -45 88 -65 97
-168 22 -268 30 -338 44 -396 13 -56 13 -66 -1 -102 -18 -45 -86 -96 -141
-106 -109 -21 -241 53 -298 166 -56 110 -76 196 -77 326 -1 112 1 125 26 175
68 136 220 181 350 105z m440 -452 c90 -82 212 -127 386 -144 216 -22 435 41
633 183 65 48 77 53 77 36 0 -14 13 -26 43 -39 32 -14 37 -19 19 -19 -51 -2
-180 -34 -232 -58 -92 -43 -181 -108 -256 -186 -40 -41 -87 -82 -105 -92 -79
-40 -176 -56 -209 -35 -19 12 -20 91 -1 113 8 11 28 17 52 17 38 0 39 -1 39
-34 0 -19 5 -38 11 -42 17 -10 47 27 54 68 10 51 -17 67 -115 69 -81 2 -132
-13 -164 -50 -27 -30 -66 -128 -73 -183 -3 -27 -8 -48 -11 -48 -13 0 -104 76
-155 129 -61 63 -93 123 -122 230 -14 50 -16 67 -7 82 7 10 12 56 12 101 l1
83 36 -68 c21 -40 57 -87 87 -113z m2922 15 c-40 -155 -34 -148 -108 -142 -87
6 -93 0 -90 -89 3 -63 0 -78 -18 -101 -36 -45 -50 -36 -50 33 0 67 -18 113
-51 131 -26 14 -19 20 51 43 122 42 199 95 251 176 18 28 34 48 36 47 2 -2 -8
-46 -21 -98z m-955 -64 c94 -49 221 -89 314 -100 l61 -6 -4 -35 c-4 -35 11
-64 33 -64 8 0 11 8 8 19 -7 29 14 61 41 61 31 0 47 -21 48 -61 2 -47 -32 -68
-108 -69 -100 0 -139 20 -269 141 -27 25 -74 63 -103 83 -64 45 -207 112 -256
121 l-35 7 21 28 21 28 71 -54 c39 -30 110 -74 157 -99z m-402 -439 c104 -140
175 -185 290 -186 66 0 201 -34 201 -50 0 -5 -5 -22 -12 -37 -58 -133 -203
-189 -329 -125 -42 21 -59 37 -76 72 -13 24 -23 59 -23 77 0 30 3 32 38 35 29
2 38 8 40 24 3 18 -7 24 -74 44 -130 38 -306 32 -389 -15 -58 -32 -64 -32 -34
1 13 15 58 42 99 62 98 45 120 66 120 113 0 20 -7 42 -15 49 -23 19 -8 30 45
30 l49 0 70 -94z m-344 -323 c-29 -58 -97 -113 -141 -113 -20 0 -21 3 -12 38
5 21 24 67 41 102 30 62 34 65 64 62 18 -2 41 1 50 7 30 16 28 -33 -2 -96z
m-1235 -498 c0 -16 -55 -22 -64 -6 -8 13 5 21 36 21 18 0 28 -5 28 -15z"/>
<path d="M7532 11552 c-41 -36 -111 -109 -157 -163 -77 -91 -82 -99 -78 -135
2 -22 8 -53 14 -70 12 -38 46 -72 58 -58 40 43 138 190 166 248 33 70 80 218
73 236 -2 5 -36 -21 -76 -58z"/>
<path d="M6473 11489 c-95 -75 -175 -202 -228 -364 -14 -43 -24 -82 -23 -87 2
-4 69 64 151 152 125 136 152 171 183 237 33 72 34 78 18 90 -28 20 -45 15
-101 -28z"/>
<path d="M10547 11066 c-78 -32 -129 -67 -206 -140 -63 -60 -165 -185 -157
-193 4 -4 307 150 369 187 15 10 52 44 82 77 52 57 53 61 36 77 -24 22 -55 20
-124 -8z"/>
<path d="M3535 8193 c-51 -63 -61 -81 -29 -51 25 23 71 88 62 88 -2 0 -16 -17
-33 -37z"/>
<path d="M6095 7385 c12 -98 61 -208 120 -270 19 -21 35 -41 35 -45 0 -9 94
-60 112 -60 8 0 30 -7 47 -16 26 -13 40 -14 64 -6 l32 10 -30 1 c-16 1 -41 8
-55 16 -14 8 -32 17 -40 21 -43 18 -80 39 -80 46 0 5 -5 8 -11 8 -44 0 -179
221 -179 294 0 11 -5 28 -11 36 -8 11 -9 1 -4 -35z"/>
<path d="M7932 7238 c18 -29 36 -55 41 -57 4 -1 13 -10 20 -18 28 -35 93 -93
104 -93 7 0 16 -6 20 -12 13 -21 72 -38 96 -28 22 8 22 8 -3 19 -14 7 -43 23
-65 36 -22 14 -50 30 -62 36 -13 7 -23 16 -23 21 0 4 -4 8 -9 8 -10 0 -101 86
-101 95 0 8 -34 45 -42 45 -4 0 7 -24 24 -52z"/>
<path d="M8252 7018 c3 -7 20 -14 39 -15 19 -1 25 1 14 4 -11 3 -24 9 -29 14
-14 13 -28 11 -24 -3z"/>
<path d="M9584 7243 c14 -36 28 -171 23 -221 -7 -62 -41 -126 -92 -170 -19
-17 -35 -34 -35 -37 0 -3 12 -5 27 -5 38 0 115 83 141 151 41 112 35 218 -16
272 -29 30 -58 37 -48 10z"/>
<path d="M5460 7309 c-32 -13 -66 -45 -92 -87 -22 -36 -17 -54 10 -34 68 49
165 67 196 36 27 -27 20 -44 -19 -44 -71 0 -145 -61 -145 -119 0 -29 12 -27
71 14 47 32 87 44 101 29 4 -3 -5 -30 -19 -60 -29 -64 -26 -89 17 -138 36 -40
39 -79 8 -100 -31 -22 -96 -20 -141 4 -77 42 -73 16 7 -34 105 -67 144 -67
201 2 23 28 27 39 22 74 -3 24 -18 56 -37 79 -34 43 -32 61 15 97 23 19 24 23
20 102 -3 45 -12 97 -21 116 -28 58 -126 90 -194 63z"/>
<path d="M10069 8472 c-78 -40 -119 -111 -119 -202 0 -78 21 -126 67 -155 18
-11 32 -24 33 -29 0 -5 -26 -41 -58 -80 -70 -85 -82 -105 -82 -144 0 -74 78
-112 229 -112 114 0 161 18 211 78 l34 40 29 -40 c38 -53 94 -78 180 -78 85 0
143 27 209 98 78 83 158 265 158 359 0 34 0 34 21 14 l20 -19 -55 -156 c-66
-185 -70 -224 -26 -268 29 -29 34 -30 99 -26 82 4 129 32 159 93 11 23 41 117
67 211 26 93 51 176 56 185 6 12 20 15 63 11 30 -2 69 0 85 6 l31 11 -15 -30
c-12 -22 -23 -29 -44 -29 -47 0 -60 -10 -86 -61 -28 -54 -32 -115 -11 -144 12
-17 10 -26 -20 -83 -41 -76 -43 -114 -9 -147 36 -37 131 -35 205 3 54 27 55
29 92 122 36 90 41 96 85 120 79 42 117 136 73 178 -20 19 -20 19 15 95 51
110 46 163 -17 187 -19 7 -102 15 -191 18 -151 4 -160 3 -188 -17 l-29 -21
-20 20 c-36 36 -96 27 -225 -34 -78 -37 -115 -60 -120 -75 -9 -28 -21 -27 -29
4 -11 43 -63 92 -115 109 -143 47 -283 -9 -377 -148 l-34 -51 0 35 c0 41 -29
108 -56 132 -37 32 -92 48 -168 48 -61 0 -83 -5 -127 -28z m220 -40 c66 -33
93 -100 72 -179 -13 -47 -87 -163 -151 -235 -23 -27 -38 -53 -34 -59 7 -11 64
-9 156 7 l38 7 -11 -31 c-15 -43 -77 -112 -116 -128 -39 -17 -167 -18 -214 -3
-39 14 -69 37 -69 54 0 7 31 51 68 97 124 153 171 252 156 327 -7 33 -28 56
-42 47 -5 -3 -15 -27 -21 -52 -11 -42 -9 -74 5 -126 9 -30 -50 -23 -88 11 -27
24 -32 36 -35 87 -4 52 -1 64 25 105 52 82 175 115 261 71z m513 5 c77 -27
108 -79 108 -180 0 -165 -112 -377 -232 -438 -44 -22 -115 -25 -162 -5 -90 38
-129 174 -91 321 57 221 224 355 377 302z m486 -23 c2 -18 -12 -78 -31 -135
-19 -57 -52 -164 -72 -238 -42 -154 -57 -189 -92 -215 -37 -27 -108 -33 -133
-11 -11 10 -20 26 -20 36 0 10 30 101 66 201 36 101 68 191 71 200 4 15 0 16
-31 11 -35 -5 -36 -5 -36 25 0 53 11 64 114 113 121 58 159 61 164 13z m435
18 c15 -6 27 -18 27 -27 0 -9 -22 -65 -50 -125 -27 -60 -50 -112 -50 -115 0
-3 16 -5 35 -5 40 0 40 -1 20 -41 -17 -31 -69 -69 -96 -69 -11 0 -28 -33 -56
-102 -38 -97 -42 -104 -83 -125 -51 -27 -121 -30 -140 -8 -10 13 -4 32 39 114
l51 100 -27 3 c-36 4 -41 34 -13 87 19 38 23 41 63 41 l42 0 48 95 c26 52 45
95 43 95 -2 0 -43 -11 -90 -25 -97 -28 -134 -31 -142 -12 -7 19 12 65 43 106
l26 33 141 -4 c78 -3 153 -10 169 -16z m-1361 -359 c-4 -48 -6 -53 -27 -53
-13 0 -31 -3 -41 -7 -11 -4 -1 16 26 55 24 34 44 61 45 59 1 -1 -1 -26 -3 -54z"/>
<path d="M10712 8384 c-125 -99 -163 -379 -63 -468 21 -20 22 -20 42 1 33 33
70 149 76 239 6 89 -6 144 -40 182 l-20 22 23 25 c30 32 24 32 -18 -1z m6
-177 c4 -51 -12 -136 -38 -202 l-12 -30 -15 35 c-20 46 -12 136 17 213 26 70
41 65 48 -16z"/>
<path d="M2906 8302 l-18 -53 -31 24 c-56 41 -58 41 -42 -4 8 -23 15 -45 15
-50 0 -5 -24 -9 -52 -9 l-53 -1 25 -19 c14 -10 34 -25 44 -33 19 -14 18 -16
-24 -43 l-44 -29 52 -3 c29 -2 52 -7 52 -11 0 -5 -7 -27 -15 -50 -8 -22 -12
-41 -8 -41 3 0 22 14 43 30 l38 30 18 -52 18 -53 15 48 c8 26 19 47 23 47 5 0
25 -12 44 -26 38 -29 40 -25 19 35 l-14 41 56 0 56 0 -41 30 c-23 17 -42 32
-42 34 0 2 19 18 42 35 l42 31 -53 0 c-59 0 -58 -3 -34 80 6 24 5 24 -35 -9
-30 -23 -43 -29 -47 -19 -3 7 -11 31 -18 53 l-14 40 -17 -53z"/>
<path d="M4846 8292 l-18 -53 -31 24 c-56 41 -58 41 -42 -4 8 -23 15 -45 15
-50 0 -5 -24 -9 -52 -9 l-53 -1 25 -19 c14 -10 34 -25 44 -33 19 -14 18 -16
-24 -43 l-44 -29 52 -3 c29 -2 52 -7 52 -11 0 -5 -7 -27 -15 -50 -8 -22 -12
-41 -8 -41 3 0 22 14 43 30 l38 30 18 -52 18 -53 15 48 c8 26 19 47 23 47 5 0
25 -12 44 -26 38 -29 40 -25 19 35 l-14 41 56 0 56 0 -41 30 c-23 17 -42 32
-42 34 0 2 19 18 42 35 l42 31 -57 0 -56 0 14 41 c21 59 19 63 -18 35 -19 -15
-38 -26 -44 -26 -5 0 -16 21 -24 48 l-15 47 -18 -53z"/>
<path d="M9666 8282 l-18 -53 -31 24 c-56 41 -58 41 -42 -4 8 -23 15 -45 15
-50 0 -5 -24 -9 -52 -9 l-53 -1 25 -19 c14 -10 34 -25 44 -33 19 -14 18 -16
-24 -43 l-44 -29 52 -3 c29 -2 52 -7 52 -11 0 -5 -7 -27 -15 -50 -8 -22 -12
-41 -8 -41 3 0 22 14 43 30 l38 30 18 -52 18 -53 15 48 c8 26 19 47 23 47 5 0
25 -12 44 -26 38 -29 40 -25 19 35 l-14 41 56 0 56 0 -41 30 c-23 17 -42 32
-42 34 0 2 19 18 42 35 l42 31 -53 0 c-59 0 -58 -3 -34 80 6 24 5 24 -35 -9
-30 -23 -43 -29 -47 -19 -3 7 -11 31 -18 53 l-14 40 -17 -53z"/>
<path d="M12066 8272 l-18 -53 -31 24 c-56 41 -58 41 -42 -4 8 -23 15 -45 15
-50 0 -5 -24 -9 -52 -9 l-53 -1 25 -19 c14 -10 33 -25 44 -33 17 -13 16 -15
-25 -45 l-43 -32 52 0 c29 0 52 -4 52 -9 0 -5 -7 -27 -15 -50 -8 -22 -12 -41
-8 -41 3 0 22 14 43 30 l38 30 18 -52 18 -53 15 48 c8 26 19 47 23 47 5 0 25
-12 44 -26 38 -29 40 -25 19 35 l-14 41 56 0 56 0 -41 30 c-23 17 -42 32 -42
34 0 2 19 18 42 35 l42 31 -57 0 -56 0 14 41 c22 61 19 64 -25 29 -29 -23 -41
-28 -45 -18 -3 7 -11 31 -18 53 l-14 40 -17 -53z"/>
<path d="M2587 7605 c-9 -22 8 -247 34 -443 85 -658 331 -1315 707 -1887 508
-775 1262 -1405 2117 -1768 154 -65 381 -151 449 -169 53 -14 64 -28 48 -61
-6 -12 -13 -35 -17 -51 -5 -23 -3 -27 9 -23 10 4 18 -4 25 -24 5 -16 14 -29
18 -29 4 0 27 -18 51 -40 23 -22 57 -47 74 -56 18 -9 37 -22 44 -28 6 -7 45
-23 85 -36 41 -14 76 -28 79 -32 11 -14 136 -29 192 -23 71 8 143 57 153 105
4 16 10 30 15 30 4 0 10 12 13 28 12 55 14 55 133 42 108 -12 164 -25 164 -40
0 -11 106 -30 169 -30 31 0 83 7 116 14 75 18 505 33 505 18 0 -5 23 -16 51
-22 l51 -12 -23 -23 c-13 -13 -55 -58 -94 -100 -38 -43 -98 -107 -132 -143
-35 -36 -63 -69 -63 -73 0 -4 -11 -16 -25 -27 -14 -11 -25 -24 -25 -29 0 -5
-12 -20 -27 -34 -53 -48 -111 -117 -118 -138 -3 -11 -11 -21 -16 -21 -16 0
-10 -99 8 -128 24 -40 132 -141 175 -163 21 -10 46 -19 57 -19 11 0 21 -4 23
-9 5 -13 100 -59 139 -66 35 -6 297 47 308 63 3 4 32 21 64 36 32 15 68 38 81
50 105 97 126 118 126 125 0 4 9 18 20 31 12 13 26 43 32 67 5 24 14 43 18 43
5 0 14 40 21 90 7 49 16 90 19 90 4 0 10 48 14 108 3 59 11 170 18 246 10 131
13 141 37 162 14 13 51 28 81 35 30 6 136 35 235 64 977 288 1815 852 2449
1650 94 119 305 430 379 560 310 548 509 1162 571 1765 22 213 27 304 19 316
-5 7 -33 13 -63 14 -30 2 -648 2 -1372 2 l-1318 -2 0 -30 0 -30 1071 0 1071 0
-7 -77 c-43 -522 -165 -975 -385 -1429 -366 -760 -943 -1374 -1693 -1804 -241
-137 -584 -289 -642 -282 -31 4 -33 7 -38 52 -8 68 -58 113 -230 205 -87 47
-191 42 -245 -12 -13 -13 -27 -21 -31 -15 -3 5 -26 22 -51 37 -24 16 -50 34
-58 41 -19 19 -109 44 -156 44 -83 -1 -155 -47 -270 -169 -28 -30 -60 -63 -71
-75 l-19 -20 -10 34 c-5 19 -13 37 -16 40 -3 3 -12 21 -20 40 -19 48 -86 110
-151 140 -30 14 -57 28 -60 33 -7 9 -134 37 -174 37 -61 0 -130 -26 -192 -74
-34 -26 -65 -51 -68 -56 -3 -6 -14 -14 -23 -19 -15 -8 -17 -4 -17 29 0 70 -42
113 -130 134 -16 4 -32 11 -35 14 -3 4 -54 22 -115 41 -60 18 -112 36 -115 40
-3 4 -34 18 -70 30 -36 13 -71 28 -79 35 -8 6 -25 16 -39 22 -24 9 -26 15 -23
62 2 37 -4 67 -20 102 -20 43 -31 54 -78 77 -31 15 -58 30 -61 34 -12 16 -179
62 -226 62 -55 0 -114 -31 -114 -59 0 -8 -4 -14 -8 -14 -5 0 -14 -25 -21 -55
-7 -30 -16 -55 -20 -55 -4 0 -15 -31 -25 -70 -10 -38 -23 -71 -29 -73 -6 -2
-11 -30 -10 -69 0 -60 3 -68 31 -95 18 -17 28 -34 23 -39 -4 -5 -14 -37 -21
-71 -7 -35 -16 -63 -21 -63 -4 0 -13 -25 -19 -55 -6 -30 -16 -57 -21 -61 -6
-3 -8 -12 -5 -20 3 -8 1 -14 -4 -14 -4 0 -12 -15 -15 -32 -4 -18 -9 -36 -11
-40 -6 -9 -48 9 -220 91 -1082 521 -1886 1475 -2199 2611 -62 226 -109 495
-130 753 l-7 77 1111 0 1111 0 0 30 0 30 -1278 0 c-704 0 -1333 3 -1399 6
-109 6 -120 5 -126 -11z m502 -935 c4 0 22 11 41 25 19 14 35 25 36 25 2 0 -3
-19 -11 -41 -21 -58 -20 -59 26 -56 22 2 42 0 45 -5 3 -4 2 -8 -3 -8 -4 0 -21
-10 -37 -23 l-29 -23 44 -32 43 -32 -52 0 c-29 0 -52 -2 -52 -4 0 -2 7 -22 15
-45 8 -22 12 -41 9 -41 -3 0 -20 11 -38 25 -18 14 -35 25 -38 25 -3 0 -11 -19
-18 -42 l-13 -43 -18 40 c-20 43 -28 45 -67 14 -14 -10 -27 -18 -29 -16 -2 2
3 22 11 45 l15 41 -52 3 -51 3 37 25 c20 14 37 30 37 35 0 6 -15 20 -33 33
l-32 22 41 0 c22 0 43 3 47 6 3 3 -1 24 -9 46 -19 54 -19 54 20 24 19 -14 39
-26 43 -26 5 0 15 21 22 48 l14 47 14 -47 c8 -27 18 -48 22 -48z m8700 0 c4 0
22 11 41 25 19 14 35 25 36 25 2 0 -3 -19 -11 -41 -8 -23 -15 -45 -15 -50 0
-5 21 -9 47 -9 l48 0 -38 -25 c-20 -14 -37 -27 -37 -29 0 -3 19 -18 42 -35
l42 -31 -52 0 c-29 0 -52 -2 -52 -4 0 -2 7 -22 15 -45 15 -45 14 -45 -37 -7
-15 11 -29 18 -32 15 -2 -2 -10 -24 -18 -49 l-16 -45 -13 48 c-7 26 -16 47
-19 47 -3 0 -21 -11 -40 -25 -18 -14 -35 -23 -37 -21 -2 1 3 22 11 44 l15 42
-52 0 c-57 1 -58 -2 12 49 l24 18 -39 24 -39 24 35 3 c60 5 61 7 45 53 -20 55
-20 55 19 25 19 -14 39 -26 44 -26 5 0 15 21 22 48 l13 47 14 -47 c8 -27 18
-48 22 -48z m-819 -1490 c6 -22 14 -40 18 -40 5 0 23 11 42 25 19 14 35 25 36
25 2 0 -3 -18 -11 -41 -8 -23 -12 -45 -9 -50 3 -5 24 -9 46 -9 l41 0 -29 -22
c-16 -12 -33 -25 -37 -28 -5 -4 11 -21 34 -39 l43 -31 -52 0 c-29 0 -52 -2
-52 -4 0 -2 7 -22 15 -45 8 -22 12 -41 9 -41 -3 0 -21 12 -40 26 -19 15 -36
25 -38 23 -2 -2 -10 -24 -18 -49 l-15 -45 -13 45 c-8 25 -15 47 -17 49 -1 2
-21 -8 -43 -23 -22 -14 -40 -25 -40 -22 0 2 7 22 15 45 l14 41 -52 0 c-57 1
-58 -2 12 49 l24 18 -39 24 -39 24 35 3 c60 5 61 7 45 53 -20 55 -20 55 19 25
19 -14 39 -26 44 -26 5 0 14 18 21 40 6 22 14 40 16 40 2 0 9 -18 15 -40z
m-7041 -50 c4 0 22 11 41 25 19 14 35 25 36 25 2 0 -3 -19 -11 -41 -8 -23 -15
-45 -15 -50 0 -5 21 -9 46 -9 l47 0 -29 -22 c-16 -12 -33 -25 -37 -28 -5 -4
11 -21 34 -39 l43 -31 -52 0 c-29 0 -52 -2 -52 -4 0 -2 7 -22 15 -45 8 -22 12
-41 9 -41 -3 0 -21 12 -40 26 -19 15 -37 25 -39 22 -3 -3 -11 -25 -18 -49
l-13 -44 -13 40 c-19 56 -23 58 -61 30 -18 -14 -35 -23 -37 -21 -2 1 3 22 11
44 l15 42 -52 0 c-57 1 -58 -2 12 49 l24 18 -37 22 c-20 13 -36 25 -34 26 2 2
19 4 38 6 50 4 50 5 34 51 -19 54 -19 54 20 24 19 -14 39 -26 44 -26 5 0 15
19 22 43 l13 42 14 -42 c8 -24 18 -43 22 -43z m2204 -380 c133 -53 141 -63
133 -160 l-5 -75 52 -31 c99 -60 308 -146 470 -194 44 -13 81 -29 84 -36 2 -7
-47 -117 -110 -246 -145 -293 -200 -412 -217 -463 -7 -22 -16 -44 -21 -50 -5
-5 -9 -16 -9 -25 0 -17 21 6 107 120 32 41 121 140 198 220 78 80 153 162 168
182 38 51 151 163 214 210 65 49 107 56 190 30 89 -28 161 -78 183 -127 73
-161 76 -203 20 -255 -65 -60 -259 -168 -397 -221 -74 -28 -83 -44 -82 -137 1
-91 19 -138 50 -134 45 5 277 157 486 317 17 14 47 56 66 93 20 38 50 89 67
113 17 24 40 58 50 74 30 47 228 234 255 241 16 4 39 -3 72 -22 61 -35 201
-132 208 -145 16 -24 51 -7 84 42 47 70 64 76 110 46 20 -13 56 -34 79 -46 58
-29 104 -72 97 -89 -2 -7 -65 -104 -139 -215 -113 -170 -166 -261 -166 -284 0
-7 50 34 105 85 209 198 306 272 351 272 72 0 45 -67 -66 -167 -47 -41 -168
-156 -270 -253 l-186 -178 -12 -98 c-7 -55 -19 -182 -27 -283 -26 -309 -68
-414 -212 -528 -55 -43 -176 -93 -281 -114 l-61 -13 -60 43 c-42 29 -67 40
-80 36 -14 -4 -39 11 -90 55 -39 34 -71 68 -71 77 0 23 146 190 466 534 l174
187 0 106 c0 78 -3 106 -12 105 -7 0 -37 -30 -67 -65 -85 -104 -124 -113 -241
-56 -35 17 -56 34 -58 47 -2 12 -28 35 -63 57 l-59 37 0 51 c0 27 -4 50 -9 50
-5 0 -77 -54 -161 -121 -168 -134 -212 -158 -286 -159 -88 0 -136 24 -225 112
-44 44 -87 95 -95 113 -27 66 -74 54 -143 -38 -41 -54 -143 -244 -153 -284
-16 -61 -141 -50 -296 27 -64 31 -112 63 -141 93 -42 44 -44 47 -37 93 7 53
40 173 61 219 7 17 16 41 20 55 4 14 13 39 20 55 8 17 28 64 45 105 46 107 83
187 156 334 35 71 64 134 64 140 -1 12 -191 106 -214 106 -8 0 -18 -15 -21
-32 -11 -48 -64 -218 -81 -255 -8 -17 -14 -38 -14 -46 0 -9 -4 -18 -10 -22 -9
-6 -198 52 -213 65 -5 4 12 70 37 146 25 77 51 168 58 203 12 59 11 64 -7 77
-57 38 -57 36 -13 157 22 62 45 127 51 145 6 17 15 32 20 32 5 0 55 -18 110
-40z m-784 -760 c4 0 22 11 41 25 19 14 35 25 36 25 2 0 -3 -19 -11 -41 -20
-57 -20 -59 17 -55 54 6 62 -4 23 -31 -19 -13 -35 -25 -35 -27 0 -3 19 -18 42
-35 l42 -31 -52 0 c-29 0 -52 -2 -52 -4 0 -2 7 -22 15 -45 15 -45 15 -45 -38
-8 -16 10 -30 18 -31 16 -2 -2 -10 -24 -18 -49 l-15 -45 -12 42 c-6 23 -15 44
-20 47 -4 3 -24 -6 -44 -20 -20 -14 -37 -23 -37 -21 0 3 7 23 15 46 l14 41
-52 0 c-57 1 -58 -2 12 49 l24 18 -37 22 c-42 26 -40 40 5 35 45 -5 50 2 33
48 -19 54 -19 54 20 24 45 -34 53 -33 61 7 12 52 18 54 33 9 7 -23 17 -42 21
-42z m4200 -10 c4 0 22 11 41 25 19 14 35 25 36 25 2 0 -3 -19 -11 -41 -8 -23
-15 -45 -15 -50 0 -5 21 -9 47 -9 l48 0 -38 -25 c-20 -14 -37 -27 -37 -29 0
-3 19 -18 42 -35 l42 -31 -52 0 c-29 0 -52 -2 -52 -4 0 -2 7 -22 15 -45 15
-45 15 -45 -38 -8 -16 10 -30 18 -31 16 -2 -2 -10 -24 -18 -49 l-16 -45 -13
48 c-7 26 -16 47 -19 47 -3 0 -21 -11 -40 -25 -18 -14 -35 -23 -37 -21 -2 1 3
21 11 44 l15 41 -52 3 -51 3 37 25 c20 14 37 30 37 35 0 6 -14 19 -31 29 -33
19 -25 38 12 29 10 -3 25 -3 34 0 13 5 13 11 0 48 -20 55 -20 55 19 25 19 -14
39 -26 44 -26 5 0 15 21 22 48 l13 47 14 -47 c8 -27 18 -48 22 -48z"/>
<path d="M7368 3933 c-109 -111 -178 -199 -178 -227 0 -9 52 22 99 60 93 75
206 244 163 244 -5 0 -43 -35 -84 -77z"/>
<path d="M8194 3877 c-104 -77 -178 -168 -252 -312 -39 -74 -83 -195 -72 -195
9 0 102 83 247 221 74 70 101 104 137 172 24 46 50 94 57 105 12 19 11 23 -6
36 -31 24 -48 19 -111 -27z"/>
<path d="M7957 2798 c-122 -148 -193 -248 -175 -248 26 0 106 60 160 119 71
77 152 241 119 241 -6 0 -52 -51 -104 -112z"/>
</g>
</svg>
